<svg width="215" height="215" viewBox="0 0 215 215" fill="none" xmlns="http://www.w3.org/2000/svg">
<path d="M153.376 25.791C145.501 17.9167 132.834 17.9167 107.5 17.9167C82.1658 17.9167 69.4898 17.9167 61.6154 25.791C57.2079 30.1985 55.2729 36.12 54.4129 44.926C59.4296 44.7917 64.9658 44.7917 71.0396 44.7917H143.978C150.043 44.7917 155.579 44.7917 160.587 44.926C159.736 36.12 157.783 30.1985 153.376 25.791ZM161.25 138.854C161.25 164.188 161.25 181.344 153.376 189.209C145.51 197.083 132.834 197.083 107.5 197.083C82.1658 197.083 69.4898 197.083 61.6244 189.209C53.75 181.344 53.75 164.188 53.75 138.854H161.25Z" fill="#1447E6"/>
<path opacity="0.5" d="M143.333 53.75H71.6667C46.3325 53.75 33.6565 53.75 25.7911 61.6244C17.9167 69.4898 17.9167 82.1658 17.9167 107.5C17.9167 132.834 17.9167 145.51 25.7911 153.376C30.2165 157.81 36.1648 159.745 45.0425 160.596C44.7917 154.119 44.7917 146.487 44.7917 138.854C43.6037 138.854 42.4644 138.382 41.6244 137.542C40.7844 136.702 40.3125 135.563 40.3125 134.375C40.3125 133.187 40.7844 132.048 41.6244 131.208C42.4644 130.368 43.6037 129.896 44.7917 129.896H170.208C171.396 129.896 172.536 130.368 173.376 131.208C174.216 132.048 174.688 133.187 174.688 134.375C174.688 135.563 174.216 136.702 173.376 137.542C172.536 138.382 171.396 138.854 170.208 138.854C170.208 146.487 170.208 154.119 169.958 160.596C178.826 159.745 184.784 157.81 189.218 153.376C197.083 145.51 197.083 132.834 197.083 107.5C197.083 82.1658 197.083 69.4898 189.209 61.6244C181.344 53.75 168.668 53.75 143.333 53.75Z" fill="#1447E6"/>
<path d="M80.625 96.3021C82.4069 96.3021 84.1159 95.5942 85.3759 94.3342C86.6359 93.0742 87.3438 91.3653 87.3438 89.5833C87.3438 87.8014 86.6359 86.0925 85.3759 84.8325C84.1159 83.5725 82.4069 82.8646 80.625 82.8646H53.75C51.9681 82.8646 50.2591 83.5725 48.9991 84.8325C47.7391 86.0925 47.0313 87.8014 47.0312 89.5833C47.0313 91.3653 47.7391 93.0742 48.9991 94.3342C50.2591 95.5942 51.9681 96.3021 53.75 96.3021H80.625ZM161.25 89.5833C161.25 91.9592 160.306 94.2378 158.626 95.9178C156.946 97.5978 154.668 98.5417 152.292 98.5417C149.916 98.5417 147.637 97.5978 145.957 95.9178C144.277 94.2378 143.333 91.9592 143.333 89.5833C143.333 87.2074 144.277 84.9289 145.957 83.2488C147.637 81.5688 149.916 80.625 152.292 80.625C154.668 80.625 156.946 81.5688 158.626 83.2488C160.306 84.9289 161.25 87.2074 161.25 89.5833Z" fill="#1447E6"/>
</svg>
